<?xml version="1.0" encoding="UTF-8"?>
<svg enable-background="new 0 0 826 826" version="1.1" viewBox="0 0 755 755" xml:space="preserve" xmlns="http://www.w3.org/2000/svg">
<g transform="translate(-36.283 -37.516)"><text x="-82.27578" y="910.95129" fill="#00055e" fill-rule="evenodd" font-family="'Arial Rounded MT Bold'" font-size="133.33px" letter-spacing="24.99px" stroke="#c11c1c" stroke-linecap="round" stroke-width="0" text-align="center" text-anchor="middle" style="paint-order:stroke fill markers" xml:space="preserve"><tspan x="-82.27578" y="910.95129"/></text><circle transform="translate(0)" cx="413.78" cy="415.02" r="377.5" fill="#54c160" fill-rule="evenodd" style="paint-order:stroke fill markers"/><path d="m636.87 385.65s-57.396-17.802-27.915-59.762c0 0-62.932-0.0842-42.662-54.349 0 0-57.551 16.917-47.658-49.754 0 0-54.343 58.953-72.967-22.001 0 0-37.192 84.767-68.423 16.494 0 0-19.765 73.471-74.429 16.26 0 0 14.066 73.564-57.865 56.421 0 0 25.756 53.691-27.314 49.229 0 0 30.846 46.704-24.165 61.326 0 0 71.178 41.48 3.9117 86.173 0 0 76.326 2.9729 48.816 65.087 0 0 40.159-17.957 59.449 4.432 10.06 13.397 14.689 31.817 3.2878 56.436 0 0 61.367-64.834 80.018 16.122 0 0 37.096-76.584 68.328-8.3383 0 0 19.794-73.498 74.428-16.232 0 0-20.944-68.569 45.792-37.453-0.156-0.28455-19.576-63.642 37.246-46.837 0 0-35.965-36.099 14.489-61.703 0 0-33.591-38.429 7.6323-71.549" fill="#fbd217"/><path d="m321 343.76s40.017-4.2893 50.447 28.921c0 0-4.3519 11.638-12.07 8.8866 0 0-9.6729-22.627-40.206-20.892 0 0-22.195-1.4214-42.32 34.108 0 0-7.8233 4.9584-7.5038-3.2441 0 0 9.1219-38.297 51.652-47.779" fill="#191919"/><path d="m409.47 358.33s-12.243 44.079 28.936 84.307c0 0-0.091 2.3356 6.4508 0.25126 0 0 6.5595-3.2533 4.565-12.103 0 0-31.597-31.724-28.92-69.687 0 0-1.485-7.6324-11.031-2.7688" fill="#191919"/><path d="m495.79 339.39s42.49 1.5714 49.544 35.653c0 0-7.741 9.278-15.153 5.8147 0 0-7.3549-23.511-37.91-24.785 0 0-20.68-5.9851-44.258 27.377 0 0-7.6125 2.4047-6.5166-5.7119 0 0 11.011-33.183 54.292-38.348" fill="#191919"/><path d="m536.82 442.97s-67.533 113.05-211.58 21.918l2.4891-3.1334s0.11876-4.4788-3.6245-2.0348c-5.2591 3.471-6.5926 7.6798-8.942 11.515-1.2202 2.0132-1.1584 6.8611 1.9161 2.9986 0 0 1.0954-3.4961 6.4281 0.83517 0 0 158.72 120.41 213.31-32.098" fill="#191919"/><path d="m384.04 59.73c8.04-0.61 16.7-1.67 24.19 2.1 12.05 5.64 14.38 24.18 4.74 33.09-1.7 1.64-3.88 2.61-6.04 3.46 3.42 0.5 7.17 1.5 9.17 4.59 3.57 5.29 2.64 12.02 4.42 17.91 0.86 3.53 2.94 7.07 2.04 10.8-2.67 6.73-13.61 6.78-16.85 0.52-2.75-4.98-1.92-10.96-3.54-16.29-0.87-4-3.66-8.22-8.08-8.6-7.25-0.49-14.46 0.93-21.7 1.22 0.47 7.83 1.44 15.62 1.88 23.45 0.63 5.11-4.24 9.47-9.22 8.92-4.56 0.36-8.34-3.65-8.47-8.07-1.68-20.28-3.59-40.54-5.09-60.83-0.63-4.46 2.1-9.2 6.78-9.83 8.53-1.3 17.19-1.53 25.77-2.44m-14.56 14.93c0.61 7 1.05 14.01 1.83 20.98 5.55-0.45 11.08-1.05 16.64-1.42 3.97-0.36 8.4-0.98 11.28-4.04 3.03-3.41 2.63-8.56 0.94-12.5-1.54-3.48-5.62-4.62-9.12-4.54-7.21 0.07-14.38 1.06-21.57 1.52z" fill="#fff" stroke="#231F20" stroke-width=".0938"/><path d="m484.75 75.41c1.11-3.66 3.97-7.55 8.24-7.26 5.95 0.37 11.43 3.06 17.15 4.52 9.53 3.24 20.41 4.83 27.69 12.44 11.57 12.01 4.51 35.11-11.34 39.49-5.1 1.51-10.6 1.26-15.7-0.13-6.89-1.92-13.69-4.17-20.55-6.16-2.12 6.55-4.01 13.17-6.09 19.73-0.82 2.76-2.62 5.53-5.52 6.37-4.2 1.07-9.51-0.48-11.29-4.73-1.52-2.75-0.41-5.89 0.39-8.67 5.73-18.51 11.28-37.09 17.02-55.6m9.52 29.8c7.23 1.71 14.13 5.49 21.67 5.38 8.63-0.07 13.27-12.58 6.63-18.15-6.3-4.9-14.63-5.66-21.95-8.34-2.04 7.06-4.39 14.03-6.35 21.11z" fill="#fff" stroke="#231F20" stroke-width=".0938"/><path d="m290.8 79.83c3.3-2.32 7.28-3.59 11.23-4.23 3.35-0.49 6.17 1.88 8.13 4.32 13.18 16.46 26.42 32.86 39.62 49.31 1.88 2.56 4.41 5.33 3.84 8.78-0.58 6.53-10.16 10.09-14.54 5.04-3.05-3.51-5.83-7.24-8.65-10.93-9.12 2.88-18.14 6.06-27.15 9.26-0.18 4.85 0.14 9.73-0.39 14.57-0.41 6.93-11.78 9.62-15.2 3.5-1.56-2.53-1.39-5.62-1.43-8.47 0.43-20.33 1.29-40.65 1.7-60.99 0.29-3.45-0.24-7.76 2.84-10.16m11.85 15.39c-0.1 10.99 0.12 21.98 0.17 32.97 6.41-1.87 12.74-4.06 18.97-6.47 0.4-1.25-1-2.17-1.5-3.18-5.97-7.7-11.63-15.65-17.64-23.32z" fill="#fff" stroke="#231F20" stroke-width=".0938"/><path d="m566.32 102.63c12.05-3 24.65 1.59 34.3 8.8 8.45 6.2 14.8 15.89 15.24 26.56 0.83 11.76-4.36 23.19-11.81 32.03-6.95 8.25-17.12 14.25-28.07 14.51-10.05 0.4-19.68-3.98-27.54-9.96-7.21-5.42-12.95-13.36-14.2-22.45-1.77-11.13 2.53-22.23 8.41-31.49 5.43-8.52 13.69-15.64 23.67-18m7.12 14.99c-9.97 2.55-16.24 11.81-20.11 20.73-3.09 6.99-3.86 15.87 1.32 22.09 5.06 5.8 12.94 10.08 20.82 8.78 7.22-1.47 12.76-7.02 16.8-12.89 5.14-7.41 8.8-17.2 5.28-26.05-4.0899-8.77-14.48-14.61-24.11-12.66z" fill="#fff" stroke="#231F20" stroke-width=".0938"/><path d="m234.69 105.81c2.72-1.8 6.23-3.7 9.49-2.05 2.97 1.98 5.36 6.32 3.12 9.67-1.5 2.14-3.74 3.6-5.85 5.09-8.87 5.92-17.78 11.77-26.61 17.75 2.91 4.66 5.77 9.38 9.15 13.7 1.24-0.31 2.3-1.03 3.36-1.71 6.96-4.72 13.97-9.35 20.97-14.01 2.28-1.38 4.81-3.23 7.64-2.52 4.89 1.33 7.37 8.8 2.59 11.85-8.7 6.41-17.99 12.02-26.87 18.19 3.47 5.08 6.54 10.48 10.41 15.27 10.67-6.06 20.42-13.71 30.95-20.04 2.05-1.12 4.63-2.05 6.85-0.83 2.66 1.55 4.76 4.68 4.29 7.85-0.78 2.91-3.4 4.73-5.73 6.37-11.41 7.62-22.86 15.17-34.23 22.85-2.57 1.7-5.73 3.17-8.87 2.24-3.02-0.91-4.94-3.64-6.67-6.1-9.87-14.8-19.69-29.64-29.6-44.41-1.71-2.71-3.87-5.54-3.67-8.93 0.02-3.29 2.66-5.69 5.13-7.46 11.39-7.59 22.79-15.14 34.15-22.77z" fill="#fff" stroke="#231F20" stroke-width=".0938"/><path d="m631.32 144.38c1.59-2.44 3.74-4.88 6.77-5.38 6.39-1.04 12.88 7.05 8.61 12.74-10.26 15-21.17 29.56-31.59 44.45 15.52-8.85 30.99-17.81 46.5-26.69 2.16-1.13 4.73-2.57 7.17-1.3 3.45 1.69 6.35 4.81 7.5099 8.5 0.89 3.2-1.22 6.12-2.85 8.68-9.56 14.19-19.08 28.42-28.67 42.59 12.24-7.09 24.17-14.7 36.33-21.93 4.52-2.59 8.71-6.09 13.86-7.34 5.44-0.14 9.9 6.11 8.16 11.24-1.03 2.65-3.47 4.38-5.87 5.69-18.13 9.83-36.27 19.63-54.38 29.48-2.94 1.63-6.71 2.65-9.85 0.97-2.8-1.78-5.26-4.31-6.56-7.39-1.3-3.47 0.48-6.95 2.36-9.8 8.87-13.72 18.02-27.25 26.87-40.98-13.7 7.94-27.63 15.49-41.4 23.3-3.37 1.76-7.33 4.28-11.17 2.35-3.12-1.67-5.79-4.41-7.2-7.67-1.47-3.67 0.72-7.37 2.66-10.39 10.94-17.03 21.82-34.09 32.74-51.12z" fill="#fff" stroke="#231F20" stroke-width=".0938"/><path d="m140.58 187c-0.55-5.49 4.77-10.76 10.26-10.02 3.28 0.56 5.52 3.22 7.87 5.32 12.4 11.88 24.88 23.67 37.32 35.51 7.06-7.21 13.85-14.67 20.91-21.87 2.67-2.81 7.46-4.41 10.71-1.6 3.61 2.5 3.54 7.9 0.74 10.99-8.28 9.21-17 18.02-25.48 27.04-2.17 2.28-4.64 4.76-7.96 5.05-3.04 0.25-5.67-1.65-7.82-3.55-13.91-13.1-27.63-26.42-41.58-39.47-2.13-2.07-4.59-4.28-4.97-7.4z" fill="#fff" stroke="#231F20" stroke-width=".0938"/><path d="m128.35 212.38c5.1-1.4 11.65-1.47 15.28 3.01 3.13 4.37 0 11.27-5.14 12.34-4.48 1.02-9.5 0.5-13.46 3.24-6.5 4.46-9.5 13.39-7.01 20.88 2.14 6.83 7.56 12.11 13.55 15.74 5.93 3.63 12.87 6.27 19.93 5.64 7.75-0.8 14.13-7.23 16.06-14.58 1.22-5.76-2.21-10.84-3.92-16.06-2.08-5.24 3.13-11.32 8.5-10.83 4.13 1.03 6.92 4.77 8.74 8.39 3.95 8.99 2.58 19.51-1.64 28.14-4.89 9.42-12.65 18.11-23.11 21.21-10.3 3.03-21.38 0.2-30.56-4.86-9.66-5.03-18.2-13.07-21.97-23.48-3.44-8.96-2.44-19.21 1.74-27.75 4.51-9.62 12.57-18.08 23.01-21.03z" fill="#fff" stroke="#231F20" stroke-width=".0938"/><path d="m700.74 224.79c2.78-1.4 5.99-2.95 9.14-1.82 3.16 0.96 4.85 4.04 6.38 6.71 5.75 10.56 11.42 21.17 17.22 31.7 1.58 3.04 3.54 6.07 3.89 9.56-0.13 4.44-5.31 7.49-9.4 6.39-2.8199-1.19-4.24-4.08-5.7-6.56-5.19-9.61-10.43-19.2-15.6-28.82-5.07 2.45-9.94 5.28-14.89 7.97 4.53 8.58 9.2599 17.06 13.87 25.6 1.29 2.52 2.8 5.44 1.66 8.31-1.57 2.76-4.86 4.59-8.05 4.02-2.75-0.69-4.16-3.38-5.51-5.61-4.7-8.58-9.35-17.19-13.99-25.8-5.55 2.93-11.04 5.97-16.53 8.99 5.43 9.98 10.79 20 16.23 29.97 1.33 2.7 3.11 5.85 1.87 8.91-1.64 3.3-6.02 5.36-9.51 3.86-2.61-1.44-3.93-4.28-5.38-6.74-6.52-12.12-13.16-24.18-19.67-36.31-1.7-3.07-2.24-7.34 0.3-10.13 2.78-3.08 6.76-4.64 10.31-6.65 14.46-7.84 28.91-15.69 43.36-23.55z" fill="#fff" stroke="#231F20" stroke-width=".0938"/><path d="m83.26 280.97c2.71-1.2 5.69-0.32 8.38 0.46 12.3 3.82 24.65 7.44 36.97 11.17 7.15 2.23 14.3 5.96 18.44 12.43 4.57 7.02 4.99 15.95 3.13 23.93-2.16 9.89-6.25 20.29-14.9 26.24-7.24 5.06-16.79 5.19-25 2.71-13.35-4-26.7-7.99-40.03-12.07-2.83-0.77-5.47-2.67-6.42-5.54-1.19-4.37 0.84-9.87 5.28-11.52 2.73-1.02 5.64-0.14 8.31 0.64 12.25 3.8 24.55 7.43 36.81 11.16 4.09 1.26 8.67 2.02 12.77 0.44 5.08-2.32 7.5-7.84 8.75-12.96 1.08-4.45 0.76-9.75-2.59-13.19-2.36-2.67-5.76-4.04-9.09-5.04-12.52-3.76-25.02-7.57-37.54-11.3-2.56-0.82-5.43-1.6-7.04-3.93-3.29-4.37-1.18-11.49 3.77-13.63z" fill="#fff" stroke="#231F20" stroke-width=".0938"/><path d="m681.71 312.77c18.46-4.57 36.9-9.24 55.34-13.9 3.18-0.71 6.86-1.53 9.85 0.28 3.19 2.03 4.06 5.97 4.94 9.39 2.3 9.54 4.84 19.01 7.1 28.56 1.18 6.31 1.49 13.29-1.67 19.1-5.42 9.77-19.48 13.45-28.99 7.58-2.57-1.51-4.4-3.94-5.89-6.45-0.01 3.48-0.38 7.4-3.15 9.87-4.63 4.32-11.36 4.5-16.84 7.17-3.42 1.29-6.53 4.05-10.34 3.78-7.06-1.64-8.87-12.09-3.37-16.48 5.87-4.62 14.37-3.86 19.99-8.97 2.78-2.34 3.34-6.34 2.55-9.71-1.28-6.05-3.04-11.98-4.41-18-8.34 1.52-16.37 4.49-24.76 5.68-7.09 0.53-11.04-9.13-6.92-14.36 1.58-2.07 4.16-2.9 6.57-3.54m37.68 8.89c1.47 6.13 2.99 12.24 4.6 18.33 1.04 3.91 3.22 8.18 7.36 9.45 4.29 0.86 9.33-0.34 12.15-3.87 2.22-3.26 1.4-7.5 0.72-11.12-1.5-5.98-2.9-11.98-4.61-17.9-6.73 1.74-13.48 3.41-20.22 5.11z" fill="#fff" stroke="#231F20" stroke-width=".0938"/><path d="m61.39 364.55c2.27-1.41 5.05-1.09 7.6-1.09 19.65 0.9 39.31 1.82 58.96 2.83 3.96 0.07 8.69 1.65 9.93 5.85 1.33 4.97 0.93 11.81-4.27 14.43-16.85 9.7-33.78 19.26-50.67 28.88 15.27 0.92 30.57 1.42 45.84 2.29 3.08 0.26 6.38 2.09 7.03 5.35 0.84 3.44 0.4 7.84-2.6 10.15-2.34 1.75-5.41 1.5-8.16 1.42-19.36-0.85-38.7-1.87-58.05-2.71-3.67-0.11-8.04-0.67-10.06-4.19-2.73-5.5-1.72-13.66 4.32-16.53 17.02-9.55 34.13-18.94 51.14-28.5-14.11-0.83-28.25-1.3-42.36-2.09-3.63-0.23-8.16 0.19-10.58-3.11-2.66-3.88-2.15-10.24 1.93-12.98z" fill="#fff" stroke="#231F20" stroke-width=".0938"/><path d="m745.31 391.42c3.25-1.62 7.04-0.27 10.09 1.22 8.04 4.31 12.5 13.53 12.89 22.41 0.18 7.17-1.34 14.66-5.52 20.61-5.29 7.73-16.83 10.34-24.86 5.48-6.06-3.59-9.52-9.93-13.87-15.22-2.44-3.26-6.98-3.49-9.78-6.27-2.16-3.41-1.47-9.1 2.62-10.8 3.51-1.36 7.64-0.56 10.62 1.68 5.6 4.06 8.55 10.72 14.04 14.9 4.05 3.03 10.91 1.92 13.14-2.83 1.74-3.54 1.72-7.97 0.13-11.55-2.39-4.79-8.59-5.13-11.86-8.99-2.27-3.28-1.38-8.82 2.36-10.64z" fill="#fff" stroke="#231F20" stroke-width=".0938"/><path d="m694.19 407.07c5.96-2.38 12.93 3.49 11.61 9.78-0.64 6.5-9.34 9.9-14.21 5.55-5.54-3.89-3.84-13.43 2.6-15.33z" fill="#fff" stroke="#231F20" stroke-width=".0938"/><path d="m648.36 571.48c4.62-1.56 10.43-1.59 14.1 2.08 3.83 4.04 0.7599 11.63-4.57 12.48-4.59 0.67-9.59 0.51-13.58 3.26-4.67 3.14-8.57 8-9.49 13.66-0.79 4.83 4.11 10.34 9.11 8.21 11.19-5.21 18.65-16.39 30.42-20.63 13.12-4.75 28.32 6.79 28.52 20.43 0.45 9.5601-4.66 18.27-10.55 25.4-5.89 6.92-13.57 13.23-22.89 14.36-4.86 0.64-10.68-0.48-13.52-4.85-2.53-4.51 1.02-10.65 6.09-11.05 5.15-0.45 10.8 0.51 15.35-2.56 5.16-3.48 9.61-8.97 10.06-15.38 0.45-4.88-3.77-10.16-8.94-9.32-4.87 0.97-8.25 5.03-12.21 7.72-7.06 5-13.47 11.74-22.24 13.58-7.28 1.7-14.54-2.37-19.27-7.66-4.87-5.37-6.23-13.28-4.24-20.16 3.8-13.51 14.35-25.29 27.85-29.57z" fill="#fff" stroke="#231F20" stroke-width=".0938"/><path d="m179.51 586.59c2.73-2.65 6.33-5.47 10.39-4.23 5.66 2.05 10.62 8.23 8.49 14.5-4.87 18.8-10.18 37.5-14.93 56.33 11.86-10.64 23.1-22 35.03-32.57 7.02-6.14 18.21 5.89 11.41 12.4-14.34 13.94-29.17 27.38-43.62 41.22-2.85 2.6-6.03 5.88-10.24 5.52-4.04-0.23-7.05-3.54-9.23-6.64-2.11-2.79-1.22-6.45-0.45-9.54 4.68-18 9.31-36.02 13.88-54.05-10.88 10.03-21.61 20.22-32.39 30.36-1.68 1.5-3.62 2.93-5.95 3.15-6.7 0.2401-12.73-9.03-7.1-14.21 14.72-14.26 29.85-28.12 44.71-42.24z" fill="#fff" stroke="#231F20" stroke-width=".0938"/><path d="m123.35 589.33c8.42-3.68 18.4 3.04 19.47 11.83 1.82 9.01-6.97 17.6-15.83 16.73-8.87-0.54-15.49-10.42-12.96-18.85 1.27-4.54 5.05-7.98 9.32-9.71m1.89 4.02c-2.65 1.04-5.01 2.9-6.5 5.33-3.06 4.83-0.85 11.87 4.37 14.16 7.78 3.77 18.23-4.45 15.73-12.92-1.31-5.74-8.29-9.06-13.6-6.57z" fill="#fff" stroke="#231F20" stroke-width=".0938"/><path d="m120.44 601.56c3.4-2.5 6.9-4.91 10.58-6.98 3.43 2.05 5.84 6.63 5.63 10.78-2.29 1.8-5.12 3.16-7.91 1.45-0.87 2.17-1.33 5.02-4.18 5.32-0.99-3.59 1.09-6.85 2.07-10.16-2.3 1.22-4.59 2.88-7.34 2.6801 0.31-1.0401 0.04-2.4601 1.15-3.0901m7.84-1.21c0.85 1.2401 1.71 2.4901 2.56 3.75 0.73-0.25 2.18-0.73 2.9-0.98-0.79-1.56-1.59-3.1-2.38-4.65-1.03 0.62-2.05 1.25-3.08 1.88z" fill="#fff" stroke="#231F20" stroke-width=".0938"/><path d="m602.31 618.81c0-5.73 7.16-10.07 12.13-7.13 2.17 1.22 3.49 3.73 3.3 6.22-0.27 9.17-1.43 18.3-1.9 27.46 0.5099 1.15 2.0099 1.18 3.04 1.69 11.86 3.69 23.69 7.46 35.54 11.19 2.56 0.83 5.46 1.76 6.8 4.34 4.11 6.21-3.49 14.9-10.23 12.74-12.52-3.67-24.83-8.08-37.32-11.88-0.27 4.53-1.23 9-1.23 13.54 3.64 5.71 8.97 10.23 12.41 16.09 3.14 6.1-3.48 13.44-9.83 12.3-2.86-0.52-4.9-2.73-6.63-4.87-12.75-15.88-25.79-31.51-38.52-47.4-2.87-3.1-3.07-8.27 0.08-11.26 3.03-3.91 9.52-4.71 12.85-0.7401 5.8 6.79 11.43 13.74 16.94 20.78 1.18-14.34 1.45-28.74 2.57-43.07z" fill="#fff" stroke="#231F20" stroke-width=".0938"/><path d="m240.19 641.05c10.65-1.45 21.28 2.74 29.82 8.88 8.53 6.06 15.08 15.5 16.05 26.09 1.21 11.64-3.77 23.04-10.94 31.96-7.01 8.81-17.59 15.33-29.05 15.64-11.08 0.42-21.6-4.83-29.78-11.97-6.61-5.6801-11.48-13.72-12.13-22.53-1.03-11.17 3.58-22.02 9.83-31.03 6.05-8.79 15.43-15.69 26.2-17.04m4.29 15.54c-9.84 2.11-16.34 10.88-20.44 19.47-2.91 6.21-4.55 13.77-1.29 20.18 3.41 6.44 10.2 10.83 17.3 12.06 7.21 1.17 14.02-3.03 18.65-8.21 5.61-6.46 10.36-14.35 10.66-23.11 0.2-12.44-13.02-22.26-24.88-20.39z" fill="#fff" stroke="#231F20" stroke-width=".0938"/><path d="m550.98 661.75c-2.58-6.12 4.45-11.33 9.98-10.8 3.08 0.42 5.14 3.01 6.37 5.67 8.15 16.89 16.26 33.8 24.45 50.67 1.62 3.67 4.0699 7.47 3.31 11.66-1.07 4.64-5.86 6.98-10.06 8.15-2.3701 0.78-4.76-0.27-6.78-1.44-16.51-10.14-32.88-20.51-49.39-30.63 6.59 14.1 13.75 27.95 20.12 42.15 2.92 6.47-5.04 12.34-10.93 10.79-3.22-0.8799-4.69-4.1899-6.06-6.91-8.64-18.08-17.44-36.09-26.07-54.18-1.44-2.99-2.03-6.89 0.33-9.6 3.17-3.71 8.46-6.27 13.35-4.73 2.91 1.17 5.41 3.14 8.08 4.78 14.7 9.28 29.28 18.75 44.04 27.93-6.79-14.57-14.19-28.85-20.74-43.51z" fill="#fff" stroke="#231F20" stroke-width=".0938"/><path d="m313.24 687.69c-2.32-3.88 0.33-9.55 4.78-10.25 3.37-0.64 6.71 0.47 9.96 1.22 15.05 3.66 30.14 7.1201 45.18 10.79 3.92 0.79 8.25 4.1 7.45 8.57-0.25 4.19-4.66 6.88-8.59 6.29-6.29-0.91-12.35-2.91-18.56-4.14-4.31 17.88-8.52 35.79-12.82 53.67-0.72 4.02-4.27 7.61-8.58 7.1-5.26 0.31-10.17-4.55-8.87-9.91 3.97-18.41 8.81-36.65 12.86-55.05-5.07-1.24-10.15-2.43-15.22-3.61-2.91-0.72-6.11-1.88-7.59-4.68z" fill="#fff" stroke="#231F20" stroke-width=".0938"/><path d="m470.87 683.84c3.54-1.38 7.36-2.35 11.18-2.25 3.2 0.23 5.32 2.91 6.9 5.41 11.37 17.65 22.77 35.27 34.15 52.91 1.62 2.71 3.69 5.76 2.86 9.09-1.2401 6.28-10.83 8.96-14.76 3.71-2.93-3.84-5.2-8.12-7.86-12.12-9.27 2.0699-18.48 4.3799-27.76 6.36-0.69 4.6-1.05 9.23-1.73 13.83-0.58 6.9399-11.46 9.3199-15.18 3.58-2-3.09-1.25-6.93-0.95-10.36 2.85-21.23 5.68-42.46 8.59-63.68 0.28-2.77 1.86-5.48 4.56-6.48m8.88 17.34c-1.24 10.93-2.06 21.89-3.27 32.82 6.79-1.33 13.53-2.93 20.23-4.63-5.7-9.36-11.12-18.9-16.96-28.19z" fill="#fff" stroke="#231F20" stroke-width=".0938"/><path d="m431.97 694.04c3.13-5.2599 12.01-5.32 15.21-0.08 1.35 2.05 1.21 4.61 1.32 6.97 0.09 20.03 0.29 40.07 0.41 60.11 0.05 2.83-0.46 6.04-2.86 7.88-3.58 2.7-9.2 2.59-12.51-0.51-1.93-1.93-2.27-4.8-2.28-7.39-0.1-8.28-0.09-16.57-0.19-24.86-10.8 0.01-21.59 0.09-32.39 0.2 0.04 8.86 0.22 17.73 0.14 26.59 0.1 3.6-2.36 7.05-5.89 7.91-5.25 1.93-11.86-1.91-11.64-7.78-0.34-18.37-0.49-36.74-0.61-55.1 0.05-4.17-0.44-8.45 0.73-12.51 2.38-6.06 12.04-6.8 15.52-1.4 1.4 1.98 1.46 4.51 1.53 6.86 0.08 6.81 0.02 13.63 0.16 20.45 10.72-0.02 21.45-0.15 32.17-0.19 0.02-6.42-0.02-12.84-0.13-19.26-0.01-2.67-0.02-5.49 1.31-7.89z" fill="#fff" stroke="#231F20" stroke-width=".0938"/></g>

</svg>
