<?xml version="1.0" encoding="UTF-8"?>
<svg enable-background="new 0 0 826 826" version="1.1" viewBox="0 0 755 755" xml:space="preserve" xmlns="http://www.w3.org/2000/svg">
<g transform="translate(810.41 419.43)"><text x="-82.27578" y="910.95129" fill="#00055e" fill-rule="evenodd" font-family="'Arial Rounded MT Bold'" font-size="133.33px" letter-spacing="24.99px" stroke="#c11c1c" stroke-linecap="round" stroke-width="0" text-align="center" text-anchor="middle" style="paint-order:stroke fill markers" xml:space="preserve"><tspan x="-82.27578" y="910.95129"/></text><circle cx="-432.91" cy="-41.927" r="377.5" fill="#54c160" fill-rule="evenodd" stroke-width="0" style="paint-order:stroke fill markers"/><path d="m-211.21-70.051s-57.396-17.802-27.915-59.762c0 0-62.932-0.0842-42.662-54.349 0 0-57.551 16.917-47.658-49.754 0 0-54.343 58.953-72.967-22.001 0 0-37.192 84.767-68.423 16.494 0 0-19.765 73.471-74.429 16.26 0 0 14.066 73.564-57.865 56.421 0 0 25.756 53.691-27.314 49.229 0 0 30.846 46.704-24.165 61.326 0 0 71.178 41.48 3.9117 86.173 0 0 76.326 2.9729 48.816 65.087 0 0 40.159-17.957 59.449 4.432 10.06 13.397 14.689 31.817 3.2878 56.436 0 0 61.367-64.834 80.018 16.122 0 0 37.096-76.584 68.328-8.3383 0 0 19.794-73.498 74.428-16.232 0 0-20.944-68.569 45.792-37.453-0.156-0.28455-19.576-63.642 37.246-46.837 0 0-35.965-36.099 14.489-61.703 0 0-33.591-38.429 7.6323-71.549" fill="#fbd217"/><path d="m-527.08-111.94s40.017-4.2893 50.447 28.921c0 0-4.3519 11.638-12.07 8.8866 0 0-9.6729-22.627-40.206-20.892 0 0-22.195-1.4214-42.32 34.108 0 0-7.8233 4.9584-7.5038-3.2441 0 0 9.1219-38.297 51.652-47.779" fill="#191919"/><path d="m-438.61-97.373s-12.243 44.079 28.936 84.307c0 0-0.091 2.3356 6.4508 0.25126 0 0 6.5595-3.2533 4.565-12.103 0 0-31.597-31.724-28.92-69.687 0 0-1.485-7.6324-11.031-2.7688" fill="#191919"/><path d="m-352.29-116.31s42.49 1.5714 49.544 35.653c0 0-7.741 9.278-15.153 5.8147 0 0-7.3549-23.511-37.91-24.785 0 0-20.68-5.9851-44.258 27.377 0 0-7.6125 2.4047-6.5166-5.7119 0 0 11.011-33.183 54.292-38.348" fill="#191919"/><path d="m-311.26-12.73s-67.533 113.05-211.58 21.918l2.4891-3.1334s0.11876-4.4788-3.6245-2.0348c-5.2591 3.471-6.5926 7.6798-8.942 11.515-1.2202 2.0132-1.1584 6.8611 1.9161 2.9986 0 0 1.0954-3.4961 6.4281 0.83517 0 0 158.72 120.41 213.31-32.098" fill="#191919"/><path d="m-720.37-68.17c1.8056-6.53e-4 3.4033 0.72623 4.7928 2.1806 1.3201 1.3853 1.9806 3.0826 1.9814 5.092 6.5e-4 1.9401-0.65839 3.638-1.9771 5.0937-1.3883 1.4557-2.9853 2.1839-4.791 2.1847l-54.482 0.0229 0.01 22.138 54.482-0.0229c1.8056-6.52e-4 3.4032 0.72623 4.7928 2.1806 1.3201 1.3853 1.9806 3.0826 1.9814 5.092 6.6e-4 2.0094-0.65837 3.742-1.9771 5.1976-1.3884 1.3864-2.9854 2.08-4.791 2.0807l-60.94 0.02563c-1.8056 6.53e-4 -3.3685-0.6916-4.6886-2.0767-1.3896-1.4545-2.0848-3.1865-2.0856-5.1959l-0.0155-36.689c-8.5e-4 -1.9401 0.69291-3.638 2.0813-5.0937 1.3189-1.4557 2.8812-2.1839 4.6868-2.1846zm13.09-33.448c-0.43987 2.0319-1.4586 3.62-3.0563 4.7643-1.6509 1.062-3.3927 1.3955-5.2256 1.0005l-22.299-4.8057-38.898 10.332c-0.36873 0.06226-0.8393 0.10266-1.4117 0.12111-0.57239 0.01842-1.1301-0.03089-1.6732-0.14792-0.88247-0.19017-1.687-0.57623-2.4136-1.1581s-1.3221-1.2774-1.7864-2.0863-0.7782-1.6564-0.94167-2.5423c-0.1488-0.95362-0.12056-1.9045 0.0847-2.8527 0.23459-1.0837 0.70678-2.1161 1.4166-3.0974 0.70977-0.98126 1.6737-1.6596 2.8918-2.0351l28.001-7.2571-22.525-18.04c-0.95416-0.84362-1.5515-1.8585-1.7921-3.0445s-0.23623-2.3548 0.0131-3.5062c0.19061-0.88048 0.55093-1.7244 1.081-2.5317 0.53002-0.80733 1.1738-1.4838 1.9314-2.0294 0.75757-0.54562 1.5876-0.93385 2.4902-1.1647 0.90257-0.23082 1.7951-0.25115 2.6776-0.061 0.47517 0.1024 0.9623 0.31371 1.4614 0.63393l1.3376 0.71359 31.178 25.327 22.299 4.8057c1.765 0.38035 3.1723 1.428 4.222 3.1429 1.0644 1.6472 1.3767 3.4867 0.93679 5.5185zm-9.5284-56.765 17.431 7.6999c1.6511 0.72932 2.8164 2.0398 3.4961 3.9313 0.70777 1.8282 0.65399 3.661-0.16134 5.4984-0.7872 1.774-2.0793 3.0599-3.8762 3.8574-1.8604 0.76952-3.648 0.77559-5.3625 0.0182l-54.866-24.236c-0.95254-0.42076-1.7572-1.0035-2.4141-1.7484-0.62873-0.80818-1.0883-1.6553-1.3787-2.5413-0.32576-0.97745-0.48236-1.9938-0.46978-3.0492 0.0126-1.0553 0.2438-2.0899 0.69363-3.1036l6.1992-13.971c1.968-4.4351 4.2758-7.9245 6.9235-10.468 2.5842-2.5716 5.3457-4.345 8.2848-5.3201 2.8755-1.0031 5.8296-1.3275 8.8622-0.97301 3.0607 0.2911 6.0516 1.0818 8.9728 2.3722 3.5562 1.5708 6.4465 3.5296 8.671 5.8762s3.7797 5.0038 4.6654 7.9715c0.9138 2.9043 1.218 6.0698 0.91271 9.4965-0.36884 3.3986-1.3686 6.9354-2.9992 10.61zm-12.097-5.3437 3.5846-8.0783c1.6025-3.6114 2.0176-6.6865 1.2454-9.2252-0.83575-2.5667-2.9682-4.6075-6.3974-6.1222-1.2066-0.53296-2.4834-0.90753-3.8305-1.1237-1.3471-0.21617-2.6797-0.1228-3.9977 0.28011-1.2899 0.33955-2.544 1.1117-3.7621 2.3165-1.2535 1.1134-2.3723 2.7789-3.3563 4.9964l-3.5846 8.0783zm80.102-69.699c1.451 1.0723 2.3004 2.6056 2.5485 4.5997 0.23356 1.8972-0.24904 3.6532-1.4478 5.2678-1.1574 1.559-2.7003 2.5313-4.6287 2.917-1.9842 0.34439-3.7018-0.0196-5.1527-1.0919l-19.504-14.415-13.207 17.789 19.504 14.415c1.451 1.0723 2.3004 2.6056 2.5485 4.5997 0.23355 1.8972-0.24905 3.6532-1.4478 5.2679-1.1988 1.6147-2.7624 2.6148-4.6908 3.0005-1.9428 0.28871-3.6397-0.10309-5.0907-1.1754l-49.723-36.748c-1.4509-1.0723-2.2932-2.5571-2.5268-4.4543-0.19223-1.9529 0.31105-3.7367 1.5098-5.3514 1.1988-1.6147 2.7417-2.587 4.6287-2.917 1.9284-0.38564 3.6181-0.0423 5.069 1.03l19.504 14.415 13.207-17.789-19.504-14.415c-1.451-1.0723-2.2725-2.5849-2.4648-4.5378-0.19222-1.9529 0.29039-3.7088 1.4478-5.2678 1.1574-1.559 2.7004-2.5313 4.6287-2.917s3.618-0.0423 5.069 1.03zm49.389-35.058c-1.0628 0.89225-2.3002 1.5236-3.7122 1.8941-1.4036 0.27284-2.7288 0.20817-3.9756-0.194l-45.589-16.604 25.084 29.743c1.1626 1.3785 1.633 3.0663 1.4114 5.0636-0.26635 1.9442-1.17 3.5632-2.7111 4.857-1.541 1.2938-3.2677 1.8831-5.18 1.768-1.957-0.16813-3.5168-0.94143-4.6794-2.3199l-39.571-46.921c-1.2967-1.5375-1.8384-3.2561-1.6252-5.1557 0.22165-1.9972 1.1827-3.7096 2.8831-5.1372 1.0628-0.89225 2.296-1.4748 3.6996-1.7476 1.4568-0.31744 2.8575-0.27088 4.2021 0.1397 4.347 1.6029 8.3109 3.0745 11.892 4.4148 3.6341 1.2958 7.1928 2.6096 10.676 3.9415 3.4916 1.2343 7.0991 2.5524 10.823 3.9541 3.6788 1.3488 7.7896 2.833 12.332 4.4527l-25.353-30.061c-1.1626-1.3785-1.6106-3.0398-1.3443-4.984 0.22164-1.9972 1.103-3.6427 2.644-4.9365 1.541-1.2938 3.29-1.8566 5.2471-1.6884 1.9123 0.11511 3.4498 0.8619 4.6123 2.2404l39.571 46.921c1.252 1.4845 1.7671 3.2254 1.5455 5.2226-0.1685 1.9526-1.1296 3.665-2.8831 5.1372zm-17.215-70.249c-0.91475-1.5533-1.1076-3.2485-0.57858-5.0856 0.58892-1.8722 1.7516-3.3174 3.488-4.3354 1.7364-1.018 3.5376-1.3105 5.4036-0.8775 1.9259 0.39789 3.3462 1.3735 4.261 2.9267l31.401 53.319c0.91476 1.5533 1.0777 3.266 0.48877 5.1382-0.52904 1.8371-1.6618 3.2647-3.3982 4.2827-1.7364 1.018-3.5676 1.328-5.4934 0.93016-1.866-0.43301-3.2564-1.4261-4.1712-2.9794zm67.592-2.3992 32.364 19.594c0.77292 0.43896 1.2943 0.90318 1.5642 1.3926 0.3344 0.46385 0.60427 0.95331 0.80961 1.4684 0.28235 0.70823 0.4162 1.5127 0.40156 2.4133 0.0499 0.87505-0.0872 1.7497-0.4113 2.6241-0.34976 0.80995-0.86709 1.5745-1.552 2.2938-0.59468 0.75801-1.4083 1.3419-2.4408 1.7516-2.3231 0.92195-4.5667 0.73107-6.7307-0.57266l-28.789-17.657-0.97228 2.623 7.8544 19.702c0.66736 1.674 0.58015 3.4237-0.26163 5.2492-0.80292 1.7355-2.1401 2.9746-4.0114 3.7173-1.8714 0.74267-3.7285 0.77126-5.5713 0.0857-1.804-0.77549-3.0396-2.0002-3.707-3.6742l-22.87-57.366c-0.66736-1.674-0.59958-3.3787 0.20334-5.1142 0.86745-1.7611 2.2369-3.013 4.1082-3.7557s3.6962-0.75847 5.4745-0.0473c1.8428 0.6855 3.0979 1.8652 3.7653 3.5392l7.3153 18.35 10.503-29.336c0.29843-0.93871 0.81611-1.8899 1.5531-2.8535 0.80147-0.98922 1.7507-1.7015 2.8477-2.1369 0.70983-0.2817 1.5161-0.41525 2.4188-0.40065 0.96724-0.011 1.889 0.14518 2.7653 0.46853 0.87631 0.32336 1.6621 0.79452 2.3573 1.4135 0.73406 0.52895 1.2679 1.2119 1.6016 2.0489 0.28235 0.70822 0.44223 1.3905 0.47966 2.0468 0.10194 0.63067-0.0546 1.5504-0.46961 2.7591zm94.805 12.091c0.28841 1.7784-0.17629 3.4679-1.3941 5.0683-1.1604 1.521-2.7346 2.4419-4.7227 2.7629-1.9196 0.3099-3.7046-0.0688-5.355-1.1359-1.6615-1.1356-2.6365-2.5926-2.9249-4.371l-3.877-23.906-21.904 3.5362 3.877 23.906c0.28841 1.7784-0.17629 3.4679-1.3941 5.0683-1.1604 1.521-2.7346 2.442-4.7227 2.7629-1.9881 0.32096-3.8074-0.0521-5.4579-1.1194-1.593-1.1467-2.5337-2.6092-2.8221-4.3876l-9.8838-60.945c-0.28841-1.7784 0.14756-3.4281 1.3079-4.9491 1.2289-1.532 2.8374-2.4586 4.8256-2.7795 1.9881-0.32096 3.7732 0.0577 5.355 1.1359 1.6504 1.0672 2.6199 2.49 2.9083 4.2684l3.877 23.906 21.904-3.5362-3.877-23.906c-0.28841-1.7784 0.18183-3.4336 1.4108-4.9657 1.2289-1.532 2.8032-2.453 4.7227-2.7629 1.9196-0.3099 3.7046 0.0688 5.355 1.1359 1.6504 1.0672 2.6199 2.49 2.9083 4.2684zm90.71 7.104c-0.30106 1.8466-1.2773 3.3028-2.9286 4.3686-1.5828 1.077-3.3681 1.4541-5.356 1.1315l-27.247-4.4222c-1.2338-0.20025-2.4167-0.49753-3.5485-0.89183-1.1207-0.46269-2.082-1.0399-2.8839-1.7317s-1.399-1.5609-1.7913-2.6074c-0.32372-1.0354-0.37408-2.237-0.15108-3.6048l9.4165-57.757c0.14495-0.88909 0.49555-1.7448 1.0518-2.5672 0.55624-0.82234 1.2328-1.5198 2.0298-2.0925 0.79697-0.57266 1.7087-0.98629 2.7353-1.2409 1.0266-0.2546 2.1225-0.28734 3.2878-0.0982l27.864 4.5224c1.9879 0.32262 3.5558 1.2791 4.7037 2.8694 1.2276 1.5331 1.6965 3.1887 1.4066 4.9669-0.30106 1.8466-1.2717 3.2686-2.9119 4.266-1.5605 0.94016-3.3347 1.2489-5.3225 0.9263l-21.387-3.471-2.6928 16.517 19.433 3.154c1.7822 0.28926 3.2927 1.1662 4.5315 2.6309 1.3073 1.4758 1.8105 3.137 1.5094 4.9836-0.30106 1.8466-1.243 3.3083-2.8258 4.3853-1.5716 1.0086-3.3514 1.3515-5.3393 1.0289l-19.433-3.154-2.7262 16.722 22.415 3.6379c1.9193 0.3115 3.4984 1.1996 4.7371 2.6643s1.7132 3.0861 1.4233 4.8643zm49.995 26.435c-1.2923-0.50801-2.4377-1.2934-3.4362-2.3562-0.90846-1.1019-1.4821-2.2956-1.7209-3.581l-7.0578-47.906-14.282 36.166c-0.66192 1.6762-1.9259 2.8922-3.7919 3.6481-1.8406 0.69146-3.6978 0.66888-5.5716-0.0677-1.8738-0.73662-3.215-1.9714-4.0235-3.7043-0.7831-1.7974-0.8437-3.5341-0.18178-5.2102l22.531-57.053c0.73829-1.8695 1.9954-3.1627 3.7714-3.8796 1.866-0.75593 3.8329-0.72748 5.9005 0.0854 1.2923 0.50801 2.3926 1.313 3.3011 2.4148 0.97307 1.1273 1.5986 2.3786 1.8765 3.754 0.65566 4.5773 1.2448 8.7561 1.7674 12.536 0.58717 3.8056 1.1225 7.5536 1.6059 11.244 0.57348 3.6513 1.1283 7.4442 1.6646 11.379 0.56173 3.8701 1.2096 8.1837 1.9436 12.941l14.435-36.553c0.66192-1.6762 1.9132-2.86 3.7538-3.5514 1.866-0.75592 3.736-0.76558 5.6098-0.0289 1.8738 0.73663 3.2022 2.0036 3.9853 3.801 0.80857 1.7329 0.88189 3.4374 0.21997 5.1136l-22.531 57.053c-0.71282 1.8051-2.0023 3.0856-3.8683 3.8415-1.8014 0.78133-3.7683 0.75288-5.9005-0.0854zm59.879 27.865c-1.0423 1.5552-2.5364 2.4756-4.4822 2.7611-1.8881 0.32406-3.6692-0.0724-5.3434-1.1894l-22.948-15.31c-1.0391-0.69329-1.9915-1.4537-2.8571-2.2813-0.82699-0.88518-1.4613-1.8085-1.903-2.77-0.44166-0.96151-0.62318-1.9995-0.54457-3.114 0.13635-1.076 0.59056-2.19 1.3626-3.342l32.601-48.643c0.50185-0.7488 1.1769-1.382 2.0251-1.8997 0.84823-0.51769 1.754-0.87195 2.7174-1.0628 0.96334-0.19083 1.9649-0.18953 3.0048 4e-3 1.0398 0.19364 2.0505 0.61784 3.0319 1.2726l23.467 15.657c1.6742 1.117 2.7025 2.6366 3.085 4.5589 0.47885 1.9032 0.21643 3.6036-0.78727 5.1012-1.0423 1.5552-2.5171 2.4467-4.4243 2.6747-1.8109 0.20886-3.5534-0.2452-5.2276-1.3622l-18.012-12.017-9.3228 13.91 16.366 10.919c1.501 1.0014 2.5102 2.425 3.0276 4.2706 0.5752 1.8842 0.34164 3.6038-0.70067 5.159-1.0423 1.5552-2.5075 2.4948-4.3956 2.8189-1.8495 0.26645-3.6113-0.1588-5.2854-1.2758l-16.366-10.919-9.4386 14.083 18.878 12.595c1.6164 1.0785 2.6834 2.5405 3.2008 4.3862 0.51746 1.8456 0.27433 3.5172-0.72936 5.0148zm31.206 4.287-13.548 13.381c-1.2833 1.2674-2.9315 1.8714-4.9446 1.8122-1.9643-0.01-3.6548-0.72905-5.0716-2.1572-1.368-1.3789-2.096-3.0484-2.1842-5.0088-0.0388-2.009 0.60812-3.6716 1.9407-4.9878l42.644-42.116c0.74036-0.73118 1.5779-1.2659 2.5127-1.6041 0.98362-0.28898 1.9418-0.40659 2.8746-0.35285 1.031 0.0543 2.0366 0.27984 3.0167 0.6768 0.98014 0.39696 1.861 0.9894 2.6428 1.7773l10.773 10.859c3.4199 3.4472 5.8333 6.8647 7.2401 10.253 1.4562 3.3392 2.1027 6.5517 1.9396 9.6377-0.11375 3.0372-0.88955 5.8996-2.3274 8.587-1.389 2.7367-3.2187 5.2263-5.4891 7.4686-2.764 2.7297-5.6468 4.6994-8.6486 5.9091-3.0018 1.2096-6.0488 1.6841-9.1413 1.4234-3.0436-0.21148-6.1084-1.0845-9.1943-2.6191-3.0366-1.5833-5.9717-3.8031-8.8054-6.6593zm9.4025-9.286 6.2291 6.2788c2.7848 2.807 5.5026 4.3152 8.1533 4.5247 2.7001 0.16072 5.3828-1.075 8.0481-3.7073 0.93779-0.92617 1.7534-1.9754 2.4469-3.1478 0.69351-1.1724 1.0929-2.4443 1.1981-3.8156 0.15408-1.3221-0.10862-2.7689-0.78809-4.3402-0.58127-1.5708-1.7269-3.2181-3.4368-4.9416l-6.2291-6.2788zm15.986 68.804c-1.5111 0.9861-3.218 1.2306-5.1206 0.73341-1.8646-0.43917-3.348-1.4996-4.4504-3.1813-1.1024-1.6817-1.5006-3.4917-1.1946-5.4301 0.34403-1.8804 1.2716-3.3136 2.7828-4.2997l50.565-32.997c0.75557-0.49306 1.6252-0.81214 2.6088-0.95726 0.98364-0.14512 1.9561-0.11738 2.9175 0.0832 0.96133 0.20062 1.8825 0.59308 2.7634 1.1774 0.8809 0.58429 1.6445 1.3693 2.2907 2.3552l15.452 23.573c1.1024 1.6817 1.4525 3.4817 1.0504 5.4-0.30603 1.9384-1.2146 3.4006-2.7257 4.3867-1.5693 1.024-3.2761 1.2685-5.1206 0.73342-1.7483-0.51502-3.1736-1.6134-4.276-3.2951l-11.86-18.093zm38.655 74.994c-1.7354 0.70868-3.4898 0.63904-5.2635-0.20891-1.7473-0.78383-3.0024-2.1056-3.7653-3.9653l-10.457-25.49c-0.47353-1.1543-0.83751-2.3159-1.0919-3.4848-0.19014-1.1952-0.19914-2.3145-0.027-3.3582 0.17218-1.0436 0.60294-2.0057 1.2923-2.8862 0.71567-0.81636 1.7162-1.487 3.0017-2.012l54.278-22.166c0.83554-0.34122 1.75-0.49006 2.7434-0.44651 0.99338 0.0436 1.943 0.25468 2.8488 0.6335 0.9058 0.37879 1.7357 0.93833 2.4896 1.6786 0.75394 0.7403 1.3545 1.6555 1.8017 2.7457l10.694 26.068c0.76291 1.8597 0.76486 3.6933 0.0058 5.5008-0.66872 1.8454-1.8386 3.1093-3.5097 3.7917-1.7354 0.70869-3.4577 0.62593-5.1671-0.24828-1.6188-0.83632-2.8096-2.1843-3.5725-4.044l-8.2079-20.008-15.522 6.3388 7.4581 18.18c0.68398 1.6673 0.72376 3.4105 0.11931 5.2296-0.57815 1.8832-1.7349 3.1792-3.4702 3.8879-1.7354 0.70869-3.4767 0.67112-5.224-0.11272-1.683-0.81007-2.906-2.145-3.6689-4.0046l-7.4581-18.18-15.715 6.4176 8.6025 20.97c0.7366 1.7956 0.80268 3.6029 0.19823 5.422s-1.7422 3.0699-3.4133 3.7524zm61.073-4.8141c1.7523-0.43457 3.4363-0.13821 5.0519 0.88911 1.6323 1.0946 2.6914 2.6169 3.1772 4.567s0.25597 3.7564-0.68952 5.4188c-0.92875 1.7297-2.2693 2.8118-4.0216 3.2464l-60.152 14.918c-1.7523 0.43457-3.4447 0.10458-5.077-0.98999-1.6156-1.0273-2.6663-2.516-3.1521-4.4661-0.48582-1.9501-0.26435-3.79 0.66439-5.5197 0.94551-1.6625 2.2944-2.711 4.0467-3.1456zm-53.964 52.259c-1.5694-0.42317-2.8628-1.287-3.88-2.5915-0.94807-1.3104-1.4751-2.5869-1.581-3.8297-0.17063-2.0022 0.26751-3.8127 1.3144-5.4314 1.122-1.5556 2.6864-2.4185 4.6931-2.5887 0.2768-0.02348 0.65739-0.05574 1.1418-0.09686 0.49027 0.02797 0.87969 0.0992 1.1682 0.21381l60.782 15.184c2.0656 0.52016 3.8058 1.3113 5.2206 2.3735 1.4899 1.1253 2.3407 2.9307 2.5526 5.4162 0.21183 2.4855-0.28962 4.3709-1.5044 5.6561-1.2088 1.3543-2.8189 2.4992-4.8301 3.4348l-57.339 25.205c-0.26503 0.16156-0.63973 0.26289-1.1241 0.30399-0.4785 0.11014-0.85615 0.17694-1.133 0.20042-2.0067 0.17026-3.6947-0.41671-5.0638-1.7609-1.294-1.281-2.0323-2.9917-2.2147-5.132-0.11768-1.3808 0.21443-2.7998 0.99632-4.257 0.78189-1.4572 1.8759-2.5235 3.282-3.1992l10.175-4.5141-1.88-22.059zm41.469 13.067c1.4812-0.61245 3.1096-1.1331 4.8852-1.5619 1.8448-0.43468 3.5542-0.82309 5.1281-1.1652-1.6092-0.0721-3.3598-0.16697-5.2517-0.28462-1.8227-0.12352-3.5158-0.36236-5.0794-0.71648l-18.217-3.9829 1.2357 14.499z" fill="#fff" fill-rule="evenodd" stroke-width="0" style="paint-order:stroke fill markers" aria-label="ΠΥΡΗΝΙΚΗ ΕΝΕΡΓΕΙΑ;"/><g transform="matrix(.94566 0 0 .9744 -836.06 -527.19)" fill="#fff" fill-rule="evenodd" stroke-linecap="round" stroke-width="0" style="paint-order:stroke fill markers" aria-label="ΟΧΙ ΕΥΧΑΡΙΣΤΩ"><path d="m94.941 670.92q-3.6485-6.3997-4.4297-12.347-0.62665-5.9047 0.96706-11.118 1.7483-5.1713 5.52-9.5393 3.8279-4.2696 9.243-7.3567l19.494-11.114q5.2182-2.9749 10.632-4.2346 5.5679-1.2174 10.852-0.1859 5.2845 1.0315 10.102 4.6772 4.8741 3.7441 8.8032 10.636 3.9291 6.892 4.6119 12.895 0.7389 6.1016-1.0655 11.174t-5.7445 9.1455q-3.7855 4.115-9.0038 7.0899l-19.494 11.114q-5.4151 3.0872-11.095 4.1076-5.624 1.1189-11.021-0.10947-5.2422-1.1861-10.06-4.8317-4.6634-3.6033-8.3118-10.003zm58.68-33.454q-3.7046-6.4982-8.863-7.0797-5.1584-0.58153-11.164 2.8424l-19.494 11.114q-5.9074 3.3678-8.021 8.356-2.1136 4.9882 1.3665 11.093 3.4801 6.1043 8.8492 6.8266t11.277-2.6455l19.494-11.114q6.0059-3.4239 8.1333-8.1591t-1.5772-11.233zm-19.976 82.387 0.0848-0.0752q-1.7885 0.37507-4.1037 0.15679-2.2304-0.29351-4.1863-2.4974-2.0312-2.2887-1.9156-5.5733 0.19074-3.1999 2.3099-5.0806 0.67812-0.60182 1.7514-1.0998 1.0733-0.49799 1.8828-0.6103l36.41-6.0986 9.3147-32.36q0.75442-1.8818 2.2802-3.2359 2.0344-1.8055 5.1494-1.5395 3.1999 0.19073 5.231 2.4794 1.7302 1.9496 1.8224 4.4438 0.1674 2.579-0.53086 4.8655l-7.2655 23.571 24.267-4.414q1.939-0.20555 4.5741 0.0318 2.6351 0.23736 4.591 2.4412 1.9559 2.2039 1.85 5.3285-0.10597 3.1246-2.3099 5.0806-0.67812 0.60183-1.6667 1.0246-0.82857 0.43229-1.8076 0.69506l-33.162 5.4894-10.381 35.427q-0.20768 0.79043-0.82964 1.797-0.62197 1.0066-1.3001 1.6084-2.1191 1.8807-5.3942 1.6052-3.1999-0.19074-5.1558-2.3946-1.9559-2.2039-1.9824-4.4533-0.0265-2.2494 0.48318-4.0655l8.6429-27.824zm89.964-7.9324q1.8736-2.2743 4.9922-2.4951 3.2061-0.14873 5.7428 1.941 2.5368 2.0898 2.9171 5.193 0.46781 3.1753-1.4058 5.4496l-42.876 52.047q-1.8736 2.2743-5.0797 2.4231-3.1186 0.22079-5.6554-1.869t-3.0045-5.265q-0.38033-3.1032 1.4932-5.3775zm72.877 119.24q-1.24 2.7975-4.2884 3.8017-2.9448 1.0501-5.9495-0.28174l-27.457-12.17q-1.865-0.82666-3.4886-1.9182-1.5777-1.1952-2.5572-2.6211-0.97953-1.4259-1.1655-3.2439-0.0823-1.772 0.83619-3.8442l25.856-58.333q0.59704-1.3469 1.8157-2.4183 1.2187-1.0714 2.7141-1.6482 1.4954-0.57686 3.2215-0.55557 1.7261 0.0213 3.4875 0.80203l28.079 12.446q3.0047 1.3318 4.1584 4.3226 1.3032 2.933 0.10918 5.6269-1.24 2.7975-4.2425 3.698-2.853 0.84288-5.8577-0.48896l-21.551-9.5525-7.394 16.681 19.582 8.6799q2.6939 1.1941 4.043 4.0235 1.4528 2.8754 0.2128 5.6729-1.24 2.7975-4.1848 3.8476-2.8989 0.94648-5.9036-0.38536l-19.582-8.6799-7.4858 16.889 22.587 10.012q2.9011 1.2859 4.2503 4.1154 1.3492 2.8294 0.15511 5.5233zm39.689 19.436q-3.3118-0.76948-5.1427-3.4056-1.6949-2.7208-1.0023-5.7014l5.6171-24.176-10.606-42.489q-0.0925-0.60326-0.10814-1.5377-0.0156-0.93443 0.1896-1.8176 0.33344-1.4351 1.3036-2.6059 0.97014-1.1708 2.3049-1.9079 1.3348-0.73704 2.7877-0.98121 1.5633-0.21853 3.1088 0.14056 1.7663 0.41039 3.353 1.5935 1.5867 1.1831 2.1699 3.1802l7.4381 30.583 20.05-24.197q1.4039-1.5354 3.3497-1.8978 1.9458-0.36236 3.8225 0.0737 1.4351 0.33343 2.742 1.2188t2.1799 2.1354q0.87308 1.25 1.2276 2.7286 0.35456 1.4786 0.0211 2.9137-0.17955 0.77275-0.71592 1.5789-0.40033 0.72145-0.80065 1.4429l-28.142 33.486-5.6172 24.176q-0.66687 2.8702-3.4981 4.5394-2.7208 1.6949-6.0326 0.9254zm57.721 4.5306 4e-3 -0.11326q-0.96002 1.555-2.7129 3.083-1.749 1.4148-4.694 1.3147-3.0582-0.10389-5.3599-2.45-2.1884-2.3423-2.0922-5.174 0.0308-0.90614 0.40906-2.0273 0.37829-1.1211 0.85444-1.7854l20.657-30.596-17.044-29.042q-0.84458-1.8431-0.77532-3.8819 0.0924-2.7184 2.4308-4.7936 2.3423-2.1884 5.4005-2.0845 2.6052 0.0885 4.4768 1.7397 1.985 1.655 3.1616 3.7362l12.084 21.503 13.515-20.633q1.1865-1.5473 3.1737-3.2941 1.9871-1.7469 4.9321-1.6468t5.1372 2.3291q2.1922 2.229 2.0922 5.174-0.0308 0.90614-0.40522 1.914-0.25731 0.89845-0.74117 1.7892l-18.862 27.822 18.533 31.928q0.42998 0.695 0.73131 1.8392 0.30132 1.1442 0.27054 2.0504-0.0962 2.8317-2.5518 5.0162-2.3423 2.1884-5.2873 2.0884t-4.594-1.6302-2.6145-3.1506l-14.218-25.431zm74.63-2.6747q-0.4757 2.6101-2.4632 4.4426-2.0065 1.7208-4.0176 2.063-3.2401 0.55116-6.0212-0.93009-2.6884-1.612-3.2396-4.8521-0.076-0.44691-0.20906-1.229-0.0213-0.8011 0.12612-1.286l10.973-67.279q0.56611-3.4302 2.1044-5.8761 1.631-2.5767 5.6532-3.2609 4.0222-0.68421 6.2827 1.1155 2.3722 1.7807 4.1714 4.9235l32.601 59.867q0.29948 0.4089 0.43252 1.191 0.24477 0.76309 0.32079 1.21 0.55116 3.2401-1.453 5.6503-1.9115 2.2795-5.375 2.8687-2.2346 0.38012-4.7162-0.69223-2.4816-1.0724-3.7746-3.2666l-5.8301-10.619-23.798 4.0482zm10.429-46.149q-1.2002-2.325-2.1413-5.1539-0.96006-2.9406-1.7324-5.4534 0.10195 2.6268 0.16819 5.7194 0.0472 2.981-0.31673 5.572l-2.6716 20.113 15.642-2.6608zm62.025 5.092 7.5502 19.317q1.0727 2.7445-0.31882 5.722-1.286 2.9363-4.3471 4.1328-2.9556 1.1552-5.9562 0.0161-3.0418-1.2447-4.1558-4.0947l-23.765-60.8q-0.61887-1.5834-0.52189-3.2031 0.20254-1.661 0.88679-3.0236 0.74854-1.5094 1.9788-2.7204t2.9191-1.8711l15.517-6.0649q7.389-2.8881 13.386-2.7986 5.9562-0.0161 10.484 2.2296 4.4869 2.1401 7.592 6.0371 3.2106 3.8558 5.1085 8.7114 2.3104 5.9112 2.1845 11.193-0.12592 5.2816-2.5184 9.7455-2.2869 4.4226-6.5879 8.0507-4.3423 3.5225-10.465 5.9154zm-5.2398-13.406 8.9723-3.5069q6.0167-2.3517 8.0464-6.1871 1.9884-3.941-0.2395-9.641-0.7839-2.0056-2.0956-3.8048-1.3117-1.7993-3.3028-2.8463-1.8856-1.0882-4.6847-1.0893-2.7348-0.14789-6.4293 1.2961l-8.9723 3.5069zm32.992-49.982q-1.4851-2.545-0.61261-5.5473 0.97036-3.0593 3.8091-4.7158t5.8817-0.93898q3.1409 0.66035 4.626 3.2054l33.986 58.243q1.4851 2.545 0.51473 5.6044-0.87247 3.0022-3.7112 4.6587-2.8387 1.6564-5.9796 0.9961-3.043-0.71747-4.5281-3.2625zm96.551 4.0343q2.474-1.9873 5.678-1.799 3.133 0.1 5.0494 2.4856 1.9163 2.3856 1.4094 5.5549-0.41861 3.0983-2.981 5.1566l-30.306 24.344q-2.7391 2.2002-6.014 1.9236-3.1866-0.34763-5.1739-2.8216-0.70975-0.88357-1.1906-2.3871-0.48089-1.5035-0.69527-2.4943-0.41426-3.5922-1.1327-8.8299-0.71844-5.2377-1.3123-10.139-0.75466-5.6447-1.4572-11.767-0.071-0.0884-0.0536-0.24769-0.071-0.0883-0.14195-0.17671-0.0536-0.24769-0.26652-0.51276-0.14195-0.17671-0.37225-0.28245-0.14195-0.17671-0.2839-0.35343-0.23031-0.10573-0.30129-0.19409l-28.712-10.226q-1.0096-0.35198-2.1611-0.88067-1.1342-0.68802-2.1278-1.925-1.9873-2.474-1.5687-5.5723 0.43598-3.2576 3.2634-5.5288l29.953-24.061q2.5623-2.0583 5.749-1.7106 3.1157 0.25928 4.961 2.5566 1.9163 2.3856 1.4977 5.4839-0.48958 3.0099-3.0519 5.0682l-19.969 16.04q7.28 2.7289 13.408 4.9291 6.0575 2.1119 12.806 4.5409 0.071 0.0884 0.30128 0.1941 0.46062 0.21147 0.74452 0.5649 0.2839 0.35342 0.39109 0.8488 0.0536 0.24769 0.12457 0.33605l3.5256 28.277zm-9.9729-62.38-7.8084 9.1295q-2.2099 2.5838-5.2335 2.9804-3.1097 0.32294-5.349-1.5923-0.86128-0.73664-1.4404-1.9776-0.59155-1.4007-0.70372-2.8389-0.12464-1.5979 0.24257-3.0734 0.44087-1.5616 1.5458-2.8536l25.93-30.317q1.9889-2.3254 5.246-2.8206 3.1709-0.56885 5.4964 1.4201 2.2393 1.9153 2.3288 5.1236 3e-3 3.1346-2.1329 5.6323l-7.8084 9.1295 45.045 38.526q2.2393 1.9153 2.3288 5.1236 0.16314 3.1222-1.9731 5.6199t-5.3196 2.9068q-3.1097 0.32294-5.349-1.5923z"/><path d="m701.09 629.4q-3.5591 6.6149-3.0344 13.352 0.4834 6.5998 4.404 12.167 3.8793 5.43 10.047 8.7486 16.537 8.8977 31.577-0.41596 1.0173-0.60533 2.2892-0.61262 1.32-0.0967 2.3927 0.48047 1.6984 0.91381 2.2766 2.8386 0.48874 1.8767-0.42508 3.5751l-8.8977 16.537q-0.76954 1.4302-2.33 1.9739-1.6017 0.40615-3.032-0.36338-1.5196-0.81763-1.9739-2.33-0.40615-1.6017 0.36338-3.032l4.8577-9.0284q-15.219 6.22-32.025-2.822-7.4194-3.9919-12.468-11.319-5.138-7.3752-5.9591-16.347-0.86235-9.1091 3.8029-17.78t12.694-12.881q7.9873-4.3476 16.973-4.1237 8.8963 0.17584 16.316 4.1678 16.805 9.042 20.001 25.17l4.8577-9.0284q0.81762-1.5196 2.33-1.9739 1.5124-0.45425 3.032 0.36338 1.4302 0.76953 1.9739 2.33 0.45425 1.5123-0.36338 3.032l-8.8977 16.537q-0.91382 1.6984-2.7492 2.3246-1.9248 0.57813-3.6232-0.33569-1.0727-0.57715-1.7674-1.6425-0.64662-1.1548-0.70201-2.3373-0.51453-17.682-17.052-26.58-6.168-3.3186-12.885-3.4745-6.7582-0.29341-12.58 3.0291-5.8633 3.185-9.4224 9.8z" stroke="#fff" stroke-width="5.2784"/></g><circle transform="rotate(90.268)" cx="-42.609" cy="429.78" r="280.14" fill="none" stroke-width="0" style="paint-order:stroke fill markers"/><path d="m-147.95-15.112c0.81518-0.18639 1.5956-0.25267 2.3413-0.19886 0.67954 0.07483 1.4026 0.1722 2.1693 0.29204 0.72147 0.20693 1.4986 0.35981 2.3315 0.45864 0.83288 0.09874 1.8433 0.0685 3.0313-0.09101-0.2109-2.0415 0.18988-3.8775 1.2023-5.508 1.0125-1.6305 2.4122-2.7298 4.1992-3.2978 1.059-0.3366 2.1146-0.45399 3.167-0.35222 1.0734 0.16782 2.0562 0.50976 2.9487 1.0259 0.97963 0.56113 1.8252 1.2739 2.5369 2.1383 0.71161 0.86443 1.2561 1.891 1.6335 3.0798 0.69189 2.1794 0.57189 4.3261-0.36001 6.4399-0.93189 2.1139-2.6222 3.56-5.0711 4.3383-1.5222 0.48383-3.5254 0.8297-6.0096 1.0376-2.397 0.25291-4.8239 0.29719-7.2806 0.13281-2.4566-0.16439-4.6243-0.56604-6.503-1.2049-1.9449-0.61788-3.1165-1.5542-3.5148-2.8091-0.12575-0.39628-0.20636-0.8796-0.24175-1.45-0.10154-0.54938-0.0602-1.1078 0.12392-1.6753 0.20513-0.50144 0.56358-0.97891 1.0754-1.4324 0.44561-0.43247 1.1858-0.74042 2.2204-0.92388zm50.31-1.2672c-2.1179 0.67315-4.2001 0.42609-6.2465-0.7412-2.0254-1.1012-3.3946-2.7746-4.1074-5.02-0.37742-1.1888-0.5248-2.3416-0.4422-3.4585 0.14879-1.1379 0.42834-2.2083 0.83857-3.2112 0.4974-0.95786 1.136-1.8152 1.9158-2.572 0.80078-0.69077 1.7307-1.2044 2.7896-1.541 1.059-0.33659 2.1146-0.45398 3.167-0.35222 1.0733 0.16781 2.0563 0.50976 2.9487 1.0259 0.97964 0.56113 1.8253 1.2739 2.5369 2.1384 0.7116 0.86443 1.2561 1.891 1.6335 3.0798 0.71287 2.2455 0.55977 4.4026-0.45928 6.4715-0.93187 2.1139-2.4568 3.5074-4.5747 4.1805z" fill="#fff" fill-rule="evenodd" stroke-width="0" style="paint-order:stroke fill markers"/><path d="m-758.23 60.843c9.011-1.8003 17.329 6.8929 16.5 15.709-0.14274 9.1909-10.562 15.709-19.033 12.97-8.551-2.4186-12.912-13.483-8.6433-21.18 2.2087-4.1649 6.6352-6.7199 11.176-7.4998m0.98951 4.3305c-2.8108 0.45112-5.5131 1.7652-7.4869 3.8217-4.0194 4.0666-3.3611 11.416 1.2506 14.766 6.7974 5.342 18.76-0.46112 18.123-9.2694-0.0561-5.8873-6.1678-10.619-11.887-9.3184z" fill="#fff" stroke="#231F20" stroke-width=".0938"/><path d="m-763.68 72.172c3.8548-1.7177 7.7882-3.3261 11.825-4.5639 2.9141 2.7341 4.2922 7.7226 3.2023 11.732-2.6211 1.2704-5.676 1.9958-8.0373-0.26972-1.3126 1.9346-2.3697 4.621-5.2181 4.3065-0.20186-3.7185 2.5253-6.4601 4.1885-9.4851-2.5072 0.7016-5.0985 1.8352-7.7426 1.0536 0.52462-0.9501 0.56357-2.395 1.7824-2.7739m7.9177 0.48928c0.56608 1.3928 1.1398 2.7974 1.7017 4.2096 0.76652-0.08862 2.2855-0.24845 3.0423-0.3392-0.43925-1.6926-0.89254-3.3677-1.3339-5.0505-1.1385 0.38615-2.2694 0.78421-3.41 1.1801z" fill="#fff" stroke="#231F20" stroke-width=".0938"/></g>

</svg>
